<?xml version="1.0" encoding="UTF-8"?>
<svg id="Layer_2" data-name="Layer 2" xmlns="http://www.w3.org/2000/svg" viewBox="0 0 400.52 78.29">
  <defs>
    <style>
      .cls-1 {
        fill: #e84824;
      }

      .cls-2 {
        fill: #c30e25;
      }

      .cls-3 {
        fill: #2463eb;
      }

      .cls-4 {
        fill: #27089f;
      }
    </style>
  </defs>
  <g id="Layer_1-2" data-name="Layer 1">
    <g>
      <path d="M144.22,56.74l-18.15-28.35-18.45,28.35h-7.4l23.4-35.2h4.85l23.25,35.2h-7.5Z"/>
      <path class="cls-4" d="M165.77,56.74c-8,0-11.05-3.45-11.05-8.5V30.04c0-5.05,3.05-8.5,11.05-8.5h28.35v5.2h-28.35c-3,0-4.4,1.15-4.4,3.25v18.3c0,2.1,1.4,3.25,4.4,3.25h28.35v5.2h-28.35Z"/>
      <path class="cls-4" d="M210.52,56.74c-8,0-11.05-3.45-11.05-8.5V30.04c0-5.05,3.05-8.5,11.05-8.5h28.35v5.2h-28.35c-3,0-4.4,1.15-4.4,3.25v18.3c0,2.1,1.4,3.25,4.4,3.25h28.35v5.2h-28.35Z"/>
      <path d="M255.37,56.74c-8,0-11.05-3.45-11.05-8.5V21.54h6.65v26.75c0,2.1,1.4,3.25,4.4,3.25h21.85c3,0,4.4-1.15,4.4-3.25V21.54h6.65v26.7c0,5.05-1.65,8.5-9.65,8.5h-23.25Z"/>
      <path class="cls-4" d="M328.07,56.74l-8.25-15.7h-18.55v15.7h-6.65V21.54h29.9c8,0,11.05,3.45,11.05,8.5v2.5c0,4.55-2.45,7.8-8.7,8.4l8.3,15.8h-7.1Zm.85-26.75c0-2.1-1.4-3.25-4.4-3.25h-23.25v9.1h23.25c3,0,4.4-1.15,4.4-3.25v-2.6Z"/>
      <path class="cls-4" d="M341.16,56.74V21.54h6.65V56.74h-6.65Z"/>
      <path d="M391.92,56.74l-15.7-14.05-15.6,14.05h-8.7l20.1-17.6-20.1-17.6h8.65l15.65,14.1,15.65-14.1h8.55l-19.95,17.35,20.05,17.85h-8.6Z"/>
    </g>
    <g>
      <rect class="cls-1" x="50.61" y="-2.27" width="19.79" height="40.11" rx="8.19" ry="8.19" transform="translate(30.3 -37.57) rotate(45)"/>
      <rect class="cls-4" x="7.89" y="40.45" width="19.79" height="40.11" rx="8.19" ry="8.19" transform="translate(47.99 5.15) rotate(45)"/>
      <rect class="cls-3" x="7.89" y="-2.27" width="19.79" height="40.11" rx="8.19" ry="8.19" transform="translate(-7.37 17.79) rotate(-45)"/>
      <rect class="cls-2" x="50.61" y="40.45" width="19.79" height="40.11" rx="8.19" ry="8.19" transform="translate(-25.06 60.5) rotate(-45)"/>
    </g>
  </g>
</svg>